#!OML:ASF F:\VICON\USERDATA\INSTALL\rory3\rory3.ASF
:FULLY-SPECIFIED
:DEGREES
28
root 0.45393504228666 16.99039476748354 -5.074449909198835 2.25737433490101 0.07736235898288846 1.5386325063711466
lfemur -11.934412940261902 -1.5034049453874394 -26.49786539140956
ltibia 43.692164335277326
lfoot -15.660176150146828 -0.7330032008381853
ltoes -5.0065475597499685
rfemur -25.980843664651943 0.0632292602104898 18.62516444329898
rtibia 116.53114249067016
rfoot 13.475298008466954 -3.5830911084772024
rtoes 17.307918701537545
lowerback 17.619443873069468 1.9109035791579951 -2.909053913172328
upperback 0.05908626972142661 1.9102340429649312 -0.7991878799780994
thorax -9.243794136233465 1.0248715460495634 0.4020017215945602
lowerneck -19.203179716990803 -4.771955431596174 -2.5191859159368306
upperneck 9.168818534501664 -6.892882546617381 7.062504308253107
head 6.205277226442551 -2.8210420658100244 2.114044143081232
lclavicle -1.5436197512788745e-15 -3.2956110385043546e-15
lhumerus -42.94664349758509 -6.046854730800683 85.30888915823722
lradius 102.90350242083335
lwrist 31.352744585037666
lhand -26.7727165066982 4.373984718048079
lfingers 7.12502
lthumb -0.01409036456724011 34.547920699151824
rclavicle -1.5504575487639386e-15 -3.3000216335360517e-15
rhumerus -50.98287545971721 7.588121782049195 -103.96901873019006
rradius 97.2336710147765
rwrist -18.778081262062038
rhand -18.830377606842223 38.88002085925455
rfingers 7.12502
rthumb 6.383085856216111 8.522653935800633
29
root 0.4842522075408808 17.025567843609956 -4.278117901510287 3.298574902865239 0.7939495094507953 0.5555545903044496
lfemur -9.686699968453372 -2.2646273722015726 -25.187939195028008
ltibia 43.97405838238219
lfoot -15.523737117379412 -0.1467000468298778
ltoes -6.802475922510572
rfemur -30.840714397185224 -0.968526239470267 20.1509911357789
rtibia 114.92634294882549
rfoot 11.909325073001696 -3.3938555031148976
rtoes 13.589902982380902
lowerback 17.4265147409848 1.179225660466153 -1.9221268147757447
upperback -0.13360623221474888 1.15500844848923 -0.23405602725761576
thorax -9.443245331842695 0.6714710108116292 1.1523244271369741
lowerneck -19.553397451022832 -4.4444521908362775 -2.4201963063116665
upperneck 9.074001709326712 -6.433819794006121 6.804087765536799
head 6.242724490530397 -2.6119052497219104 2.0205930396618434
lclavicle -1.5447707831631809e-15 -3.296447217601971e-15
lhumerus -39.87980863065788 -6.645306909517938 84.25224334224214
lradius 104.60617644606332
lwrist 32.46396180093256
lhand -26.326984641704694 3.679234329815475
lfingers 7.12502
lthumb 0.45259022556833073 33.86731129726646
rclavicle -1.5457089479702228e-15 -3.2962061705627882e-15
rhumerus -52.81339302354958 6.487908012146188 -103.74517610361187
rradius 99.59696156752706
rwrist -19.689601880290628
rhand -19.10337415003061 38.69805505997987
rfingers 7.12502
rthumb 6.925656619519842 8.826410087352714
30
root 0.5058558827331956 17.11582016412352 -3.8550085819334363 3.615091595086681 1.1633762262886007 0.3888713383684639
lfemur -7.020763494444024 -2.2199922630276854 -25.11684325145105
ltibia 43.401991795772204
lfoot -13.485914292400864 -0.5368778978393145
ltoes -12.781360465169154
rfemur -34.459895223375085 -1.738837514563754 20.888794072374363
rtibia 110.99886496899788
rfoot 10.37767000532989 -3.3542626956012214
rtoes 10.879903615301629
lowerback 17.8341454340702 0.5993325735447841 -1.8425857914236592
upperback -0.3097972894910991 0.43963508390050143 0.1778928562219444
thorax -9.67619223265715 0.34498211780937 1.8892382934821583
lowerneck -20.116500898841842 -4.117067574506808 -2.3418164438710516
upperneck 9.138728320648273 -6.002365225234353 6.5016436164405995
head 6.293334320564675 -2.4040495483599327 1.8751194408803087
lclavicle -1.5439061021606853e-15 -3.2958187375015582e-15
lhumerus -37.53967454273986 -7.1875393959578515 83.23859116277787
lradius 107.59136527241411
lwrist 33.95495710648495
lhand -25.96507765863622 3.030547272682276
lfingers 7.12502
lthumb 0.8996837132943202 33.259258846839856
rclavicle -1.543175211274614e-15 -3.294410563844477e-15
rhumerus -54.74542573751713 6.087838871307351 -103.36602704038644
rradius 102.07803424318632
rwrist -20.823422376911704
rhand -18.714588578115208 37.591158217247106
rfingers 7.12502
rthumb 7.071715665175344 8.200816718784266
31
root 0.5187996364976796 17.281489836451044 -2.7156765456956133 4.323337053891148 0.743489529854751 -0.10528857222541532
lfemur -4.106338947081987 -1.8124957596117985 -24.699763243135855
ltibia 42.15005747914129
lfoot -9.767384779012382 -2.0909097178803844
ltoes -21.70390902089553
rfemur -37.57018628835507 -1.5274162154175097 22.2309850415008
rtibia 104.92955660392042
rfoot 8.846555702849304 -3.5402911296917323
rtoes 9.533720039687331
lowerback 17.477212842764423 0.1864473937162764 -1.637048944761938
upperback -0.45672403258615585 -0.09883312680743184 0.46784672987907083
thorax -9.669523246550725 0.09915875830723853 2.69474588324919
lowerneck -20.564216619487382 -3.824933211865683 -2.350986923620466
upperneck 9.20089905395437 -5.518291099504009 6.38653054745992
head 6.359453234192046 -2.1450442563533834 1.8674944144984789
lclavicle -1.5403426446902141e-15 -3.2932304273383577e-15
lhumerus -35.98309731728652 -7.63259668299825 82.54101712752559
lradius 110.99489904889431
lwrist 35.09134116327595
lhand -25.75002454907178 2.578434362383838
lfingers 7.12502
lthumb 1.1291191259185407 32.87840029840661
rclavicle -1.5455230401257694e-15 -3.296184461619259e-15
rhumerus -56.709970228183174 5.937487522786938 -102.88650294096016
rradius 104.35517003767346
rwrist -21.72644830634633
rhand -17.466894561808573 37.61508591232307
rfingers 7.12502
rthumb 7.334625393371913 8.16454445917143
